<svg xmlns="http://www.w3.org/2000/svg" width="792" height="612"  xmlns:v="https://vecta.io/nano"><path fill="#b42025" d="M75.1 421.91l-1.02-9.5 1.02 9.52c2.97 27.78 2.4 66.27 24.11 87.74 7.03 8.42 24.75 9.67 35.36 11.61 20.28 3.72 40.62 7.1 61.07 9.94 78.16 10.86 155.9 13.11 234.81 12.47 77.48-.63 154.55-8.86 230.47-23.16 12.19-2.3 25.87-3.83 33.73-13.58 9.98-12.38 12.76-29.6 15.46-44.4 6.3-34.65 8.56-68.97 9.12-104.07 1.19-75.15 7.17-156.66-14.16-230.07-3-10.32-7.98-25.51-19.74-30.02-14.7-5.64-31.95-7.39-47.44-10.06-40.93-7.06-82.34-12.29-123.81-15.75-72.75-6.08-147.57-5.17-220.42-1.11-40.68 2.27-81.45 7.48-121.6 13.8-27.15 4.27-67.07 4.55-82.09 29.05-9.66 21.51-11.09 45.96-13.95 68.81-2.96 23.67-3.46 47.59-3.84 71.4-.87 55.42-2.99 112.12 2.92 167.38z"/><path d="M186.55 325.88v2.54l-.01 8.37-9.83-10.91h-27.06l.01 134.4 15.59 12.31 16.26-2.04.12-11.92 12.65 10.4 26.62-2.71V339.71l-14.45-13.8-19.9-.03zm163.94-.02h-46.27v17.9l13.92 10.93v92.27l15.31 12.29 18.52-.47v-104.1l13.68-.1v-13.04l-14.03-15.69h-1.13zm187 .02h-18.22v123.54l15.54 14.41 18.39 1.52v-125.3l-14.68-14.17zm90.54 75.52l11.02-60.38-14.8-15.13h-19.28l-1.63 10.13-9.33-10.13h-19.88l11.5 60.2-10.87 67.57 21.07 16.03 12.58 1.5v-11.25l17.32 13.5 16.62 2.29c0-.01-14.14-73.41-14.32-74.33zm-140.51 26.75V339.6l-14.48-13.73h-19.46V446.4l15.44 13.52 35.23 1.75-.78-15.62c-.01.01-12.4-13.91-15.95-17.9zM276.26 352.6h15.12v-12.93l-14.43-13.82h-1.02l-33.66.03v125.37l15.21 11.98 33.89-2.12v-13.87l-15.12-16.73V408.1h15.33v-13.98l-15.33-15.33.01-26.19zm141.22 26.19V352.6h15.13v-12.93l-14.43-13.82h-1.01l-33.67.03v119.69l15.44 12.81 18.55.13V408.1h15.33v-13.98c-.01 0-13.99-13.99-15.34-15.33zm-98.86-146.38c.34-.89.13-16.24-.23-16.56-.39-.35-.45-.42-4.94-5.38l-3.24-3.54c-.07-.06-1.06-1.12-2.19-2.37l-2.07-2.27-1.82-.07c-1-.04-1.89-.15-1.99-.24-.26-.26-.32-34.5-.06-34.76.14-.14 3-.25 8.39-.32l8.17-.1.06-7.92c.07-9.2.17-8.4-1.32-9.98l-5.24-5.68a235.02 235.02 0 0 0-4.91-5.29l-1.45-1.51h-35.56l-.22.64c-.3.85-.32 146.02-.02 147.06.11.38.28.75.38.81.15.1 3.63 3.27 5.02 4.59l1.43 1.3c.55.49 1.97 1.8 3.15 2.9l3.15 2.91.99.91h8.68c8.37 0 8.69-.01 8.89-.39.14-.27.21-10.63.21-32.09v-31.7l.45-.32c.39-.27 1.53-.32 8.31-.32 6.98.01 7.87-.02 7.98-.31zm79.19 64.95c.27-.17-.23-1.13-.91-1.75-1.05-.94-4.12-6.32-4.15-7.25 0-.15-.18-.77-.4-1.39-.38-1.08-.39-1.94-.42-25.4-.02-26.87-.11-28.75-1.38-31-.12-.22-.36-.71-.54-1.1-.37-.83-.64-1.29-1.27-2.17-.25-.35-.46-.7-.46-.78s-.74-.95-1.64-1.94c-1.8-1.97-1.79-1.91-.55-2.75 1.44-.98 4.02-3.96 4.02-4.66 0-.09.17-.54.38-1 1.38-3 1.47-4.86 1.4-28.06l-.07-20.32-.55-2.03c-.3-1.12-.64-2.22-.75-2.44s-.3-.82-.42-1.32c-.13-.5-.34-1.05-.47-1.22-.27-.35-.68-1.04-1.14-1.93-1.63-3.12-11.07-13.17-16.26-17.31-2.1-1.68-2.39-1.89-2.59-1.89-.1 0-.35-.17-.54-.39-.19-.21-.59-.45-.88-.52s-.75-.31-1.03-.53c-.27-.22-.65-.39-.83-.39s-.51-.13-.73-.28c-1.67-1.16-30.9-1.83-31.99-.74-.61.61-.64 146.84-.03 147.76.2.31 1.05 1.17 1.88 1.91l2.84 2.59 3.63 3.37 3.71 3.45c.78.73 1.56 1.38 1.75 1.46.79.33 16.65.18 16.98-.15.28-.28.32-1.16.32-6.59 0-3.45.06-6.41.12-6.59.28-.73-.29-1.23 8.82 7.59l5.46 5.26.69.65h8.86c4.87.03 8.99-.05 9.14-.15zm57.93-7.87c.07-8.7.2-7.99-1.89-10.23l-1.94-2.12-1.2-1.33c-.17-.18-1.13-1.23-2.13-2.33l-2.72-2.94c-.49-.51-1.38-1.49-1.99-2.15l-1.11-1.22-1.6-.12c-2.5-.18-2.25 1.9-2.19-18.05l.05-17.4 8.05-.1c6.41-.08 8.11-.16 8.38-.38.3-.25.34-1.06.33-7.92v-7.64l-.93-1.02-3-3.23-4.41-4.81c-4.98-5.6-4.24-5-6.29-5.1-.96-.05-1.85-.15-1.98-.24-.49-.3-.34-33.79.15-34.05.25-.13 3.18-.21 8.11-.21 6.75 0 7.76-.04 8.04-.32s.32-1.28.32-7.94c0-8.11-.01-8.16-1.02-9.01-.07-.06-1.16-1.25-2.43-2.64l-4.36-4.75-4.41-4.76c-1-1.08-.59-1.06-18.48-1.06h-16.85l-.31.47c-.28.42-.3 8.35-.26 74.06l.05 73.59 1.22 1.12 3.44 3.2 4.91 4.51 3.11 2.8 1.52 1.38 16.71-.05 16.88-.22c.1-.1.2-3.6.23-7.79zm66.44-.07l.06-7.62-.46-.73c-.44-.7-2.25-2.77-4.22-4.83l-7.39-8.09-.99-1.07h-1.46c-1.18 0-1.54-.08-1.9-.42l-.44-.41.02-16.8.16-17.31.14-.51 7.93-.1 8.27-.38c.3-.25.33-1.06.33-7.93v-7.65l-.96-1.04-4.72-5.25-1.41-1.54-2.46-2.63c-3.64-3.94-3.24-3.64-4.94-3.64-2.53 0-2.26 2-2.33-17.3-.05-15.58-.03-16.75.29-16.98.26-.19 2.25-.25 8.24-.25 7.33 0 7.9-.03 8.04-.35.43-1.05.16-15.8-.31-16.38-.61-.77-4.87-5.45-7.06-7.75-1.16-1.22-4.01-4.37-4.41-4.88-.91-1.16-.11-1.11-18.53-1.11h-16.96l-.32.45c-.28.41-.32 7.76-.32 73.96v73.5l1.19 1.17c.66.64 2.05 1.94 3.09 2.89l4.64 4.27 3.43 3.15c.38.33.96.86 1.29 1.17l.61.56h16.73c13.16 0 16.76-.05 16.89-.25.11-.19.21-3.73.24-7.92z" fill="#211c1d"/><path d="M523.3 447.11s4.7.23 12.76.83V329.45l-12.76.02v117.64zM308.25 341.29h13.91v103.06s2.99-.24 12.74-.46l.07-102.58h14.08v-11.82l-40.8-.01v11.81zM190.98 431.3l-.9.11-15.55-101.92-20.71-.02.01 127.92s4.11-.59 12.86-1.58l-.9-97.24.9-.08 14.79 95.8s5.06-.6 22.25-2.3V329.47h-13.21l.46 101.83zm431.59-101.85h-14.4l-7.23 45.71h-.85l-7.51-45.71h-14.12l11.03 56.54-10.67 66.08 13.74 1.31 7.06-54.48.87.02 6.86 56 15.06 1.67-10.77-68.99zm-152.12-.01l-12.83.02v114.47l29.65 1.19V433.5s-2.35-.24-16.82-.75V329.44zM246.31 448.53l29.46-1.93v-11.7l-16.55 1.14v-40.98l16.55-.01v-11.92l-16.61.01V341.3h16.68v-11.83l-29.53.01v119.05zM387.54 443h12.91v-47.95l16.55-.01v-11.92l-16.61.01V341.3h16.67v-11.83h-29.52zm-84.91-303.29l-.47-.44-14.21.02c-14.64.02-14.65.02-15.07.55-.45.56-.37 140.9.08 141.27.37.31 9.96.53 12.01.28l1.07-.13v-31.97l.32-32.29c.28-.28 1.31-.32 8.2-.32 7.09 0 7.91-.04 8.16-.34.41-.49.41-10.42 0-10.91-.25-.3-1.08-.34-8.24-.34-5.92 0-8.02-.06-8.2-.24-.35-.35-.35-52.52-.01-53.28l.24-.52h7.76c7.54 0 7.78-.01 8.3-.42l.54-.42v-5.03c-.01-4.99-.02-5.03-.48-5.47zm128.76 11.31l8.01-.34c.49-.41.51-10.25.02-10.95l-.32-.45h-14c-13.63 0-14.01.01-14.21.39-.42.79-.28 141.41.14 141.58.73.3 28 .17 28.36-.13.45-.38.5-10.05.05-10.64-.25-.33-.88-.36-7.98-.36-5.72 0-7.77-.06-7.95-.24-.42-.42-.35-53.72.08-53.88.18-.07 3.77-.12 7.98-.12 5.69 0 7.73-.06 7.91-.24.44-.44.34-11.04-.11-11.26-.2-.1-3.88-.22-8.18-.27l-7.82-.1-.05-26.19.17-26.45c.18-.24 1.87-.31 7.9-.35zm66.38 64.85l8.09-.12c.6-.23.47-11.11-.13-11.43-.32-.17-2.76-.25-8.28-.29l-7.82-.05-.05-26.07.16-26.46c.2-.38.5-.39 7.99-.39 7.28 0 7.8-.02 8.12-.37.54-.59.5-10.59-.04-11.08-.34-.31-1.6-.33-14.07-.32-14.12.02-14.14.02-14.56.55-.45.56-.36 140.9.08 141.27.54.45 27.76.52 28.44.08l.48-.31v-5.1c0-4.62-.03-5.13-.35-5.37-.28-.21-1.99-.27-8.12-.28-7.46-.01-7.77-.02-7.97-.4-.32-.6-.29-53.29.03-53.61.17-.19 2.23-.25 8-.25zM377.4 278.11a7.24 7.24 0 0 0-.43-1.17c-.87-1.72-.92-3.27-1.08-29.89l-.35-26.62c-.69-4.3-4.41-8.84-8.17-9.96-.28-.08-.86-.43-1.29-.78l-.78-.63.58-.25c.32-.14.77-.25 1.01-.26.24 0 .54-.14.67-.29.13-.16.48-.35.79-.42.69-.17 2.51-1.08 2.79-1.4.11-.13.55-.5.98-.82 2.24-1.67 3.34-4.6 3.59-9.56.55-10.94.17-42.75-.54-44.38a13.04 13.04 0 0 1-.48-1.34c-.28-1.04-1.1-2.8-1.73-3.74l-.94-1.4c-1.93-2.9-6.7-5.19-11.86-5.71-1.32-.13-6.56-.23-12.71-.23h-10.47l-.88.94v70.31l.34 70.59c.56.47 11.37.52 11.88.05.37-.34.38-1.29.38-32.28v-31.94l.51-.23c.83-.38 6.98.11 7.53.6.23.21.64.38.91.38.74 0 2.89 1.22 3.57 2.03 2.22 2.62 2.13 1.46 2.3 30.17l.37 25.29c.37 1.54 1.13 3.55 1.56 4.1.55.72 1.19 1.59 1.36 1.87.1.16 1.9.23 6.05.23 6.85 0 6.72.04 5.48-1.64-.45-.56-.86-1.3-.94-1.62zm-14.23-84.18c-.51 4.5-1.82 6.97-4.3 8.14-.53.25-1.12.59-1.32.76-.35.3-.82.42-3.91.95-1.8.31-4.33.39-4.72.14-.2-.13-.25-5.45-.2-25.95l.05-25.78.51-.26c.54-.27 3.42-.19 5.38.15a42.29 42.29 0 0 0 2.1.31c3.27.4 5.63 2.53 6.28 5.65.52 2.43.62 31.63.13 35.89z" fill="#fff"/></svg>